HIERARCHY
ROOT pelvis
{
  OFFSET 0 100 0
  CHANNELS 6 Xposition Yposition Zposition Zrotation Xrotation Yrotation
  JOINT pelvis_right_femur
  {
    OFFSET -10.78128 -3.44521 -0.5502486
    CHANNELS 3 Zrotation Xrotation Yrotation
    JOINT right_femur_tibia
    {
      OFFSET -0.8047443 -44.0398 -0.1307829
      CHANNELS 3 Zrotation Xrotation Yrotation
      JOINT right_tibia_foot
      {
        OFFSET 3.006224 -47.83518 -5
        CHANNELS 3 Zrotation Xrotation Yrotation
        End Site
        {
          OFFSET 0 -5 15
        }
      }
    }
  }
  JOINT pelvis_left_femur
  {
    OFFSET 10.78128 -3.44521 -0.5502486
    CHANNELS 3 Zrotation Xrotation Yrotation
    JOINT left_femur_tibia
    {
      OFFSET 0.8047443 -44.0398 -0.1307829
      CHANNELS 3 Zrotation Xrotation Yrotation
      JOINT left_tibia_foot
      {
        OFFSET -4.370144 -48.10324 -4.275266
        CHANNELS 3 Zrotation Xrotation Yrotation
        End Site
        {
          OFFSET 0 -5 15
        }
      }
    }
  }
  JOINT pelvis_spine1
  {
    OFFSET 0 6.468898 -3.129235
    CHANNELS 3 Zrotation Xrotation Yrotation
    JOINT spine1
    {
      OFFSET 0 23.15396 4.99043
      CHANNELS 3 Zrotation Xrotation Yrotation
      JOINT spine2
      {
        OFFSET 0 20.79997 -5.064912
        CHANNELS 3 Zrotation Xrotation Yrotation
        JOINT neck
        {
          OFFSET 0 14.38658 9.616178
          CHANNELS 3 Zrotation Xrotation Yrotation
          End Site
          {
            OFFSET 0 20 0
          }
        }
      }
      JOINT right_manubrium
      {
        OFFSET -5.722621 16.35077 3.967754
        CHANNELS 3 Zrotation Xrotation Yrotation
        JOINT right_clavicle
        {
          OFFSET -13.16364 1.694482 -4.693211
          CHANNELS 3 Zrotation Xrotation Yrotation
          JOINT right_humerus
          {
            OFFSET -28.5034 -0.3100689 -2.792744
            CHANNELS 3 Zrotation Xrotation Yrotation
            JOINT right_radius
            {
              OFFSET -25.15693 0.02248979 -1.271978
              CHANNELS 3 Zrotation Xrotation Yrotation
              End Site
              {
                OFFSET -15 0 0
              }
            }
          }
        }
      }
      JOINT left_manubrium
      {
        OFFSET 5.722621 16.35077 3.967754
        CHANNELS 3 Zrotation Xrotation Yrotation
        JOINT left_clavicle
        {
          OFFSET 13.16364 1.694482 -4.693211
          CHANNELS 3 Zrotation Xrotation Yrotation
          JOINT left_humerus
          {
            OFFSET 29.39168 -1.063119 -2.237045
            CHANNELS 3 Zrotation Xrotation Yrotation
            JOINT left_radius
            {
              OFFSET 24.59957 -0.9528479 0.9047498
              CHANNELS 3 Zrotation Xrotation Yrotation
              End Site
              {
                OFFSET 15 -0 -0
              }
            }
          }
        }
      }
    }
  }
}
MOTION
Frames: 21
Frame Time: 0.0416666666667
-451.1253 105.8746 2997.925 -3.459917 -7.405939 -26.97222 5.015802 13.71642 2.305451 -0 10.48814 -0 -3.81242 -13.62598 -2.235716 1.9522 -22.73025 -3.478549 -0 31.19512 -0 -5.845142 -7.002202 19.37699 -1.045908 -1.135805 5.264365 2.471499 11.35726 -8.905063 0.8618719 20.63434 5.629296 3.124559 -25.26988 7.035231 -0.9465275 -21.4789 11.78863 92.61363 30.25401 -20.8218 -0 0 14.13261 -14.34954 6.952663 3.182812 6.645337 -23.54132 -3.01353 -87.46456 11.56429 16.71482 0 0 -18.38708 17.81428 12.08065 -12.54228
-453.2775 104.78 3003.538 -3.481723 -6.44932 -27.66401 4.766466 16.08369 2.223034 -0 11.56984 -0 -3.068095 -15.03495 -1.563475 2.720505 -24.75245 -3.086023 -0 23.04594 -0 -5.778563 -6.555106 19.31971 -1.020935 -1.038274 5.292957 2.362589 11.55407 -8.759578 0.7123301 20.68328 5.650015 3.370012 -24.6316 6.637828 -0.4069724 -21.3419 11.89142 92.06117 30.21076 -20.52012 -0 0 14.53015 -14.69193 7.237931 3.288045 6.681218 -23.74538 -3.340176 -87.99156 11.24173 17.3896 0 0 -17.14088 17.58205 12.21609 -12.36109
-455.4601 103.6873 3009.543 -3.269541 -5.74959 -28.31112 4.00304 17.88549 2.220902 -0 14.06693 -0 -2.431675 -15.05534 -1.002387 2.447867 -25.31881 -3.448899 -0 17.96736 -0 -5.581255 -6.301003 19.18966 -0.9965852 -0.9854574 5.372857 2.254975 11.70912 -8.609332 0.5944792 20.73884 5.640781 3.539961 -24.10137 6.318949 -0.03297648 -21.35662 11.96274 91.59048 30.16961 -20.15428 -0 0 15.02789 -14.96146 7.440328 3.36615 6.657131 -23.87155 -3.601071 -88.47638 10.97723 18.15325 0 0 -15.9536 17.40741 12.34806 -12.20143
-457.7013 102.8408 3015.934 -2.805184 -5.539626 -28.85381 2.709561 19.18109 2.243834 -0 18.32027 -0 -2.107647 -13.09095 -0.5833627 1.091887 -24.64226 -4.663543 -0 16.16825 -0 -5.249997 -6.468426 19.15718 -0.9699711 -0.9782201 5.500786 2.155057 11.83127 -8.470094 0.5185093 20.79738 5.580866 3.601051 -23.71217 6.093187 0.1382078 -21.55724 12.00953 91.25039 30.08938 -19.73429 -0 0 15.62672 -15.16322 7.556086 3.422363 6.557467 -23.90371 -3.785783 -88.9127 10.77692 19.01826 0 0 -14.83296 17.2855 12.49598 -12.07674
-460.0033 102.4417 3022.618 -2.21922 -5.869303 -29.17379 1.158157 19.72347 2.218867 -0 24.57352 -0 -2.120822 -9.019752 -0.3489797 -0.9536625 -22.87942 -6.417828 -0 16.86004 -0 -4.761913 -7.070881 19.24677 -0.9413368 -1.017224 5.679195 2.065045 11.93096 -8.350179 0.4959342 20.85647 5.444252 3.51857 -23.48964 5.972819 0.08667625 -21.98505 12.0379 91.06572 29.95049 -19.24224 -0 0 16.36025 -15.29485 7.583886 3.468146 6.358466 -23.81152 -3.877572 -89.31828 10.65927 20.04096 0 0 -13.72019 17.19828 12.68713 -11.97791
-462.3318 102.6178 3029.418 -1.726937 -6.5896 -29.14207 -0.2103789 18.9667 2.09814 -0 32.64105 -0 -2.312221 -3.486927 -0.3839409 -3.061822 -20.08919 -8.145145 -0 18.70827 -0 -4.105818 -7.965428 19.32994 -0.9137449 -1.103015 5.915877 1.983417 12.01491 -8.250984 0.5399527 20.91745 5.201434 3.255128 -23.45646 5.970428 -0.2056868 -22.68807 12.04885 91.04964 29.75232 -18.63729 -0 0 17.28249 -15.34557 7.514089 3.520007 6.026876 -23.55078 -3.852485 -89.71872 10.65639 21.29969 0 0 -12.5255 17.11578 12.94734 -11.87431
-464.6182 103.3782 3036.103 -1.526081 -7.428273 -28.69841 -1.014459 16.33518 1.887257 -0 41.54791 -0 -2.486613 2.132017 -0.8116832 -4.671505 -16.29783 -9.347674 -0 20.34663 -0 -3.355794 -9.000095 19.2327 -0.8912034 -1.233489 6.220193 1.902372 12.08744 -8.168068 0.6648688 20.98669 4.824216 2.778066 -23.62805 6.095831 -0.763179 -23.70837 12.03512 91.2175 29.51254 -17.87187 -0 0 18.4433 -15.30571 7.326196 3.596142 5.52819 -23.07603 -3.684313 -90.12807 10.80316 22.8531 0 0 -11.17495 17.00741 13.28998 -11.73101
-466.7845 104.5762 3042.452 -1.693696 -8.11394 -27.89949 -1.143133 11.63629 1.638065 -0 49.46856 -0 -2.608338 6.281399 -1.663376 -5.523796 -11.63603 -9.870306 -0 20.81647 -0 -2.664876 -10.11668 18.87078 -0.876481 -1.400317 6.595644 1.807102 12.15228 -8.092855 0.8822499 21.07504 4.297372 2.077125 -24.00284 6.34921 -1.607403 -25.0521 11.97928 91.59042 29.27233 -16.9209 -0 0 19.85156 -15.17483 6.995338 3.708048 4.843722 -22.36315 -3.354317 -90.53348 11.12209 24.68871 0 0 -9.657366 16.85835 13.70465 -11.53074
-468.7815 105.926 3048.329 -2.128085 -8.479583 -26.89406 -0.7876857 5.308766 1.378062 -0 54.27172 -0 -2.833481 8.049017 -2.738094 -5.707193 -6.472587 -9.905696 -0 19.83836 -0 -2.13484 -11.33148 18.29453 -0.8700039 -1.587956 7.031986 1.681471 12.21025 -8.0163 1.194465 21.19472 3.6341 1.182923 -24.55741 6.717226 -2.737177 -26.65646 11.8558 92.18625 29.09876 -15.81591 -0 0 21.43961 -14.95895 6.50291 3.847314 3.988927 -21.43139 -2.861409 -90.88972 11.61316 26.68623 0 0 -8.056241 16.6852 14.15137 -11.29136
-470.6153 107.0845 3053.73 -2.591149 -8.493579 -25.85001 -0.2843821 -1.749021 1.046459 -0 54.48581 -0 -3.25529 7.542483 -3.722288 -5.511169 -1.367986 -9.754375 -0 17.78568 -0 -1.74765 -12.6733 17.59864 -0.8709203 -1.77782 7.502398 1.517674 12.25423 -7.933273 1.589412 21.35422 2.8864 0.1740439 -25.25182 7.176719 -4.109685 -28.37759 11.6394 93.00173 29.0749 -14.66265 -0 0 23.05255 -14.66074 5.846122 3.97567 3.024202 -20.35175 -2.227765 -91.12543 12.25241 28.61914 0 0 -6.552285 16.54567 14.56536 -11.07307
-472.3478 107.7577 3058.77 -2.8361 -8.220346 -24.89255 0.06788283 -8.609476 0.5196788 -0 49.95866 -0 -3.711828 5.549246 -4.437716 -5.238109 3.191455 -9.611365 -0 15.3626 -0 -1.474923 -14.17748 16.8189 -0.8795822 -1.955357 7.966394 1.32371 12.26629 -7.845098 2.037992 21.55222 2.146185 -0.8282544 -26.03745 7.701584 -5.627158 -30.00547 11.31972 93.99157 29.27678 -13.6301 -0 0 24.46794 -14.27569 5.047169 4.028706 2.057181 -19.24153 -1.500604 -91.1567 12.99325 30.18857 0 0 -5.403476 16.53655 14.86935 -10.97142
-474.0765 107.7795 3063.634 -2.720904 -7.754151 -24.07921 0.1115559 -14.61373 -0.3046063 -0 41.77795 -0 -3.962517 3.052534 -4.874684 -5.095367 7.011021 -9.518737 -0 13.24373 -0 -1.35656 -15.86959 15.94458 -0.8991754 -2.115317 8.374429 1.126586 12.21896 -7.760441 2.493123 21.77081 1.536899 -1.674775 -26.86081 8.265854 -7.129263 -31.29823 10.91799 95.05264 29.741 -12.91389 -0 0 25.43662 -13.80073 4.165139 3.93784 1.236655 -18.25045 -0.7522686 -90.90661 13.76489 31.07603 0 0 -4.91097 16.77008 14.98815 -11.09031
-475.9072 107.1434 3068.528 -2.249573 -7.17403 -23.40511 -0.125477 -19.41027 -1.409407 -0 31.74842 -0 -3.930568 0.9569089 -5.089477 -5.162452 10.16518 -9.407581 -0 11.93198 -0 -1.431668 -17.67078 14.99116 -0.9345287 -2.261709 8.673394 0.9702287 12.0814 -7.695812 2.893444 21.97107 1.188567 -2.220158 -27.66698 8.842101 -8.4086 -32.03953 10.4941 96.0308 30.43283 -12.67718 -0 0 25.74587 -13.24906 3.303148 3.667182 0.7261045 -17.53278 -0.07213561 -90.33424 14.47505 31.02384 0 0 -5.354202 17.32034 14.86694 -11.49088
-477.934 105.991 3073.637 -1.562867 -6.54238 -22.83065 -0.4256806 -22.85469 -2.590779 -0 21.85087 -0 -3.731939 -0.1144623 -5.164839 -5.392008 12.82865 -9.168567 -0 11.82432 -0 -1.68032 -19.30984 14.02787 -0.9879113 -2.400345 8.814891 0.9044596 11.83181 -7.674398 3.176788 22.09838 1.193063 -2.371975 -28.40441 9.39661 -9.266915 -32.10983 10.12946 96.76365 31.23674 -12.98633 -0 0 25.29513 -12.66027 2.594888 3.246882 0.6496138 -17.20353 0.4552182 -89.46658 15.02764 29.9359 0 0 -6.884087 18.15723 14.49357 -12.13608
-480.2274 104.5746 3079.09 -0.9022271 -5.932204 -22.32029 -0.4431897 -24.89389 -3.488538 -0 13.82869 -0 -3.56202 0.006593243 -5.210405 -5.634176 15.10588 -8.733306 -0 13.31366 -0 -2.060225 -20.34247 13.15745 -1.054789 -2.527269 8.767326 0.9647439 11.47529 -7.720005 3.301362 22.10259 1.557641 -2.132405 -29.02503 9.884045 -9.590423 -31.53357 9.890905 97.14467 31.9876 -13.78065 -0 0 24.14674 -12.09899 2.164699 2.77324 1.032032 -17.29708 0.7760178 -88.41222 15.3529 27.94888 0 0 -9.407535 19.12137 13.91696 -12.87971
-482.8251 103.2053 3084.942 -0.5451357 -5.449458 -21.87882 0.1518919 -25.4942 -3.731979 -0 8.881225 -0 -3.574797 0.992135 -5.329443 -5.689622 16.91842 -8.131382 -0 16.79887 -0 -2.552769 -20.28687 12.49714 -1.124119 -2.623534 8.530307 1.151978 11.05751 -7.845102 3.263068 21.96651 2.189286 -1.600809 -29.48099 10.24931 -9.390564 -30.46957 9.804039 97.16697 32.53327 -14.89851 -0 0 22.51711 -11.64058 2.077727 2.364707 1.775152 -17.75316 0.8799819 -87.34044 15.43238 25.41916 0 0 -12.53914 19.98263 13.24616 -13.52985
-485.7171 102.1962 3091.153 -0.7057535 -5.223969 -21.57436 1.481073 -24.63122 -3.137451 -0 7.409722 -0 -3.817712 2.156044 -5.562905 -5.393305 17.96243 -7.487176 -0 22.55983 -0 -3.143577 -18.83506 12.17754 -1.183806 -2.663468 8.142056 1.42814 10.65768 -8.039815 3.095162 21.72088 2.931134 -0.92797 -29.72974 10.44287 -8.779053 -29.1466 9.855529 96.91225 32.79324 -16.14083 -0 0 20.70367 -11.34826 2.313596 2.103337 2.696632 -18.44256 0.7925076 -86.42871 15.30079 22.80932 0 0 -15.69736 20.55248 12.61663 -13.94777
-488.8297 101.7959 3097.589 -1.416873 -5.36121 -21.53208 3.315909 -22.33884 -1.842548 -0 8.840324 -0 -4.228223 2.736554 -5.858779 -4.719603 17.76016 -6.945781 -0 30.50837 -0 -3.772861 -16.08034 12.32133 -1.22593 -2.629667 7.667256 1.735438 10.35505 -8.273706 2.848149 21.42843 3.634844 -0.2479445 -29.75079 10.44202 -7.903601 -27.77564 10.01276 96.49482 32.77596 -17.33782 -0 0 18.97489 -11.25211 2.785148 2.006486 3.613252 -19.22339 0.5551011 -85.79956 15.02156 20.51526 0 0 -18.34021 20.76261 12.13394 -14.1025
-492.0274 102.1128 3104.047 -2.458563 -5.878207 -21.87423 5.120485 -18.78145 -0.2610137 -0 11.71831 -0 -4.669711 2.234639 -6.093169 -3.850161 15.83963 -6.569372 -0 39.9 -0 -4.337631 -12.63321 12.96803 -1.247361 -2.521357 7.169114 2.025124 10.19088 -8.511793 2.56547 21.14889 4.218504 0.3671645 -29.55798 10.26043 -6.897147 -26.48627 10.23925 96.01134 32.54729 -18.39377 -0 0 17.48074 -11.34421 3.38522 2.042408 4.411209 -19.99514 0.2082563 -85.47813 14.65364 18.72837 0 0 -20.1957 20.65701 11.83204 -14.04765
-495.1556 103.0599 3110.309 -3.429859 -6.676378 -22.62136 6.32119 -14.27015 1.144306 -0 14.28379 -0 -4.993603 0.6395335 -6.1342 -3.089752 12.00103 -6.306438 -0 49.20966 -0 -4.758136 -9.44933 14.00723 -1.247886 -2.351882 6.690127 2.271218 10.15918 -8.728943 2.273558 20.9168 4.670195 0.9036384 -29.19239 9.937892 -5.86288 -25.32431 10.50044 95.52615 32.18399 -19.28625 -0 0 16.24608 -11.5922 4.023409 2.163986 5.057159 -20.71424 -0.215005 -85.40259 14.23437 17.43126 0 0 -21.29984 20.33146 11.67827 -13.86349
-498.1051 104.3636 3116.222 -3.979137 -7.574778 -23.64564 6.644273 -9.185344 2.099684 -0 15.34249 -0 -5.122178 -1.639733 -5.905768 -2.620457 6.493035 -6.074849 -0 56.40529 -0 -5.036225 -7.355359 15.22725 -1.229703 -2.141901 6.256611 2.462304 10.23071 -8.909276 1.987755 20.74474 5.009439 1.372175 -28.70164 9.521296 -4.875061 -24.30066 10.76717 95.07282 31.75169 -20.01853 -0 0 15.24855 -11.95704 4.63777 2.33115 5.560919 -21.36868 -0.6861745 -85.48677 13.78535 16.52426 0 0 -21.82409 19.88404 11.61913 -13.62016
